<?xml version="1.0" encoding="UTF-8"?>
<svg xmlns="http://www.w3.org/2000/svg" xmlns:xlink="http://www.w3.org/1999/xlink" viewBox="0 0 48 48" version="1.1" width="96px" height="96px">
<g id="surface1">
<path style=" fill:#CFD8DC;" d="M 40.277344 42 L 7.722656 42 C 6.695313 42 5.707031 41.5625 5.007813 40.796875 C 4.28125 40.003906 3.921875 38.925781 4.015625 37.84375 L 6.105469 14.300781 C 6.273438 12.417969 7.792969 11 9.636719 11 L 38.363281 11 C 40.210938 11 41.726563 12.417969 41.894531 14.300781 L 43.984375 37.84375 C 44.082031 38.925781 43.71875 40.003906 42.996094 40.796875 C 42.292969 41.5625 41.304688 42 40.277344 42 Z "/>
<path style=" fill:#263238;" d="M 36.632813 38 L 11.367188 38 C 9.511719 38 8 36.378906 8 34.386719 L 8 30 L 40 30 L 40 34.386719 C 40 36.378906 38.488281 38 36.632813 38 Z "/>
<path style=" fill:#546E7A;" d="M 36.664063 34 L 11.335938 34 C 10.417969 34 9.566406 33.609375 8.929688 32.898438 C 8.269531 32.152344 7.933594 31.136719 8.011719 30.109375 L 9.59375 9.300781 C 9.734375 7.449219 11.195313 6 12.914063 6 L 35.082031 6 C 36.804688 6 38.265625 7.449219 38.40625 9.300781 L 39.988281 30.109375 C 40.066406 31.136719 39.730469 32.152344 39.070313 32.894531 C 38.433594 33.609375 37.582031 34 36.664063 34 Z "/>
<path style=" fill:#455A64;" d="M 8.855469 19 L 8.011719 30.109375 C 7.933594 31.136719 8.269531 32.152344 8.929688 32.894531 C 9.566406 33.609375 10.417969 34 11.335938 34 L 36.664063 34 C 37.582031 34 38.433594 33.609375 39.070313 32.898438 C 39.730469 32.152344 40.066406 31.136719 39.988281 30.109375 L 39.144531 19 Z "/>
<path style=" fill:#FFC107;" d="M 29.1875 20 C 27.253906 17.734375 22.480469 18.121094 22.480469 16.609375 C 22.480469 15.878906 23.011719 15.335938 24.125 15.335938 C 25.242188 15.335938 26.089844 16.078125 27.238281 16.078125 C 27.886719 16.078125 28.710938 15.808594 28.710938 14.886719 C 28.710938 13.40625 25.691406 13 24.105469 13 C 21.992188 13 19 13.832031 19 17 C 19 18.648438 20.140625 19.464844 21.632813 20 C 23.644531 20.722656 26 21.019531 26 22.4375 C 26 23.367188 24.984375 23.988281 23.808594 23.988281 C 22.152344 23.988281 20.84375 23 19.929688 23 C 19.203125 23 18 23.246094 18 24.582031 C 18 26.6875 22.828125 27 24.597656 27 C 25.652344 27 30 26.371094 30 22.308594 C 30 21.3125 29.683594 20.574219 29.1875 20 Z "/>
<path style=" fill:#FFB300;" d="M 27.890625 19 L 19.855469 19 C 20.320313 19.429688 20.933594 19.746094 21.632813 20 C 23.644531 20.722656 26 21.019531 26 22.4375 C 26 23.367188 24.984375 23.988281 23.808594 23.988281 C 22.152344 23.988281 20.84375 23 19.929688 23 C 19.203125 23 18 23.246094 18 24.582031 C 18 26.6875 22.828125 27 24.597656 27 C 25.652344 27 30 26.371094 30 22.308594 C 30 21.3125 29.683594 20.574219 29.1875 20 C 28.835938 19.585938 28.386719 19.265625 27.890625 19 Z "/>
</g>
</svg>
